<?xml version="1.0" encoding="UTF-8" standalone="no"?>
<!DOCTYPE svg PUBLIC "-//W3C//DTD SVG 1.1//EN" "http://www.w3.org/Graphics/SVG/1.1/DTD/svg11.dtd">
<svg xmlns="http://www.w3.org/2000/svg" version="1.1" viewBox="0.00 0.00 40.00 40.00">
<g stroke-width="2.00" fill="none" stroke-linecap="butt">
<path stroke="#be9cf6" vector-effect="non-scaling-stroke" d="
  M 7.84 17.38
  C 9.07 15.67 11.29 15.55 13.26 15.68
  A 2.21 2.20 8.5 0 0 15.55 13.99
  C 15.92 12.42 14.85 11.34 13.35 11.23
  Q 8.88 10.91 6.08 13.05
  C 2.10 16.10 1.33 21.38 4.46 25.33
  Q 7.65 29.35 13.80 28.59
  A 2.09 2.09 0.0 0 0 15.63 26.39
  C 15.49 24.01 12.54 24.20 10.85 24.20
  C 7.38 24.20 5.98 19.96 7.84 17.38"
/>
<path stroke="#be9cf6" vector-effect="non-scaling-stroke" d="
  M 32.46 17.99
  Q 33.87 21.01 31.37 23.26
  C 30.03 24.47 28.16 24.24 26.49 24.30
  A 2.24 2.23 -81.1 0 0 24.46 25.79
  C 23.85 27.49 25.25 28.67 26.82 28.75
  C 40.98 29.50 40.80 10.01 26.48 11.27
  C 24.57 11.44 23.50 13.70 25.01 15.02
  C 27.16 16.88 30.74 14.31 32.46 17.99"
/>
<path stroke="#be9cf6" vector-effect="non-scaling-stroke" d="
  M 28.7401 19.9353
  A 2.13 2.13 0.0 0 0 26.6138 17.8016
  L 13.3738 17.7784
  A 2.13 2.13 0.0 0 0 11.2401 19.9047
  L 11.2399 20.0447
  A 2.13 2.13 0.0 0 0 13.3662 22.1784
  L 26.6062 22.2016
  A 2.13 2.13 0.0 0 0 28.7399 20.0753
  L 28.7401 19.9353"
/>
</g>
<path fill="#7c3aed" d="
  M 0.00 0.00
  L 40.00 0.00
  L 40.00 40.00
  L 0.00 40.00
  L 0.00 0.00
  Z
  M 7.84 17.38
  C 9.07 15.67 11.29 15.55 13.26 15.68
  A 2.21 2.20 8.5 0 0 15.55 13.99
  C 15.92 12.42 14.85 11.34 13.35 11.23
  Q 8.88 10.91 6.08 13.05
  C 2.10 16.10 1.33 21.38 4.46 25.33
  Q 7.65 29.35 13.80 28.59
  A 2.09 2.09 0.0 0 0 15.63 26.39
  C 15.49 24.01 12.54 24.20 10.85 24.20
  C 7.38 24.20 5.98 19.96 7.84 17.38
  Z
  M 32.46 17.99
  Q 33.87 21.01 31.37 23.26
  C 30.03 24.47 28.16 24.24 26.49 24.30
  A 2.24 2.23 -81.1 0 0 24.46 25.79
  C 23.85 27.49 25.25 28.67 26.82 28.75
  C 40.98 29.50 40.80 10.01 26.48 11.27
  C 24.57 11.44 23.50 13.70 25.01 15.02
  C 27.16 16.88 30.74 14.31 32.46 17.99
  Z
  M 28.7401 19.9353
  A 2.13 2.13 0.0 0 0 26.6138 17.8016
  L 13.3738 17.7784
  A 2.13 2.13 0.0 0 0 11.2401 19.9047
  L 11.2399 20.0447
  A 2.13 2.13 0.0 0 0 13.3662 22.1784
  L 26.6062 22.2016
  A 2.13 2.13 0.0 0 0 28.7399 20.0753
  L 28.7401 19.9353
  Z"
/>
<path fill="#fffeff" d="
  M 13.26 15.68
  C 11.29 15.55 9.07 15.67 7.84 17.38
  C 5.98 19.96 7.38 24.20 10.85 24.20
  C 12.54 24.20 15.49 24.01 15.63 26.39
  A 2.09 2.09 0.0 0 1 13.80 28.59
  Q 7.65 29.35 4.46 25.33
  C 1.33 21.38 2.10 16.10 6.08 13.05
  Q 8.88 10.91 13.35 11.23
  C 14.85 11.34 15.92 12.42 15.55 13.99
  A 2.21 2.20 8.5 0 1 13.26 15.68
  Z"
/>
<path fill="#fffeff" d="
  M 32.46 17.99
  C 30.74 14.31 27.16 16.88 25.01 15.02
  C 23.50 13.70 24.57 11.44 26.48 11.27
  C 40.80 10.01 40.98 29.50 26.82 28.75
  C 25.25 28.67 23.85 27.49 24.46 25.79
  A 2.24 2.23 -81.1 0 1 26.49 24.30
  C 28.16 24.24 30.03 24.47 31.37 23.26
  Q 33.87 21.01 32.46 17.99
  Z"
/>
<rect fill="#fffeff" x="-8.75" y="-2.20" transform="translate(19.99,19.99) rotate(0.1)" width="17.50" height="4.40" rx="2.13"/>
</svg>
