<svg xmlns="http://www.w3.org/2000/svg" enable-background="new 0 0 68 68" viewBox="0 0 68 68"><path fill="#8b5cf6" d="M21.5 38.6c.3-.3.3-.8 0-1.1l-2.4-2.4 3.1-3.1c.3-.3.3-.8 0-1.1s-.8-.3-1.1 0l-3.1 3.1-2.8-2.8c-.3-.3-.8-.3-1.1 0s-.3.8 0 1.1l2.8 2.8-2.8 2.8c-.3.3-.3.8 0 1.1.3.3.8.3 1.1 0l2.8-2.8 2.4 2.4C20.8 38.9 21.2 38.9 21.5 38.6zM21.2 48.5c-.3.3-.3.8.1 1.1.3.3.8.3 1.1-.1 4.9-5.4 13.3-5.3 18.1-.3.3.3.8.3 1.1 0 .3-.3.3-.8 0-1.1C36.1 42.5 26.7 42.4 21.2 48.5z" class="color000000 svgShape"/><path fill="#8b5cf6" d="M58.6,54.5L61.2,28c0.1-1.1-0.3-2.2-1-3c-0.7-0.8-1.8-1.3-2.9-1.3c0,0,0,0,0,0h0l0-6.9c0-2.6-2-4.7-4.6-4.8l-42.1-0.6
		c-2.7,0-4.7,2.1-4.8,4.6l0,1.8c-1.2,0.3-2.1,1.1-2.6,2.3c-0.6,0.7-1,1.6-1.2,2.3c-0.5,1.8-0.4,3.7-0.2,5.6
		c0.8,8.8,1.6,17.5,2.3,26.3c0.3,3.8,1.3,5.4,6.8,5.7c15.7,0.8,31.4,0.7,47.1,0.4c0.6,0,1.3,0,1.8-0.3c0.6-0.3,1-0.9,0.9-1.5
		c-0.3-1.3-2.5-1.1-3.8-1.2C57.8,56.8,58.4,55.8,58.6,54.5z M10.6,13l42.1,0.6c1.7,0,3.2,1.5,3.1,3.2l0,7l-14.7,0c0,0,0,0,0,0
		c-1.1,0-2.2-0.5-3-1.3l-2.3-2.6c-1.2-1.3-2.9-2.1-4.7-2.1c0,0,0,0,0,0l-23.8,0l0-1.6C7.3,14.3,8.8,12.9,10.6,13z M54.7,56.6
		l-45.1,0c-1.2,0-2.3-0.9-2.4-2.2c0,0,0,0,0,0L4.3,21.8c-0.1-1.4,1-2.6,2.4-2.6l24.4,0c0,0,0,0,0,0c1.4,0,2.7,0.6,3.6,1.6l2.3,2.6
		c1,1.2,2.5,1.9,4.1,1.9c0,0,0,0,0,0l16.2,0c0,0,0,0,0,0c0.7,0,1.3,0.3,1.8,0.8c0.5,0.5,0.7,1.2,0.6,1.8l-2.6,26.5
		C57,55.6,55.9,56.6,54.7,56.6z" class="color000000 svgShape"/><path fill="#8b5cf6" d="M44.2 33.8l2.2-2.2c.3-.3.3-.8 0-1.1s-.8-.3-1.1 0l-2.2 2.2-2.8-2.8c-.3-.3-.8-.3-1.1 0s-.3.8 0 1.1l2.8 2.8-2.6 2.6c-.3.3-.3.8 0 1.1.3.3.8.3 1.1 0l2.6-2.6 2.8 2.8c.3.3.8.3 1.1 0 .3-.3.3-.8 0-1.1L44.2 33.8zM57.8 7.6c-.9 1.2-1.6 2.4-2.1 3.8-.1.4.1.8.5.9.4.1.8-.1.9-.5.4-1.2 1-2.4 1.8-3.4.3-.3.2-.8-.1-1.1C58.5 7.3 58.1 7.3 57.8 7.6zM64.2 10.5c-.2-.3-.7-.5-1-.2l-4.7 3c-.3.2-.4.7-.2 1 .2.3.7.5 1 .2l4.7-3C64.3 11.3 64.4 10.8 64.2 10.5zM65.6 15.9l-5.3.4c-.4 0-.7.4-.7.8 0 .4.4.7.8.7l5.3-.4c.4 0 .7-.4.7-.8C66.3 16.2 66 15.9 65.6 15.9z" class="color000000 svgShape"/></svg>