<svg width="323" height="588" viewBox="0 0 323 588" fill="none" xmlns="http://www.w3.org/2000/svg">
<path fill-rule="evenodd" clip-rule="evenodd" d="M30 1H293C309.016 1 322 13.9837 322 30V558C322 574.016 309.016 587 293 587H30C13.9837 587 1 574.016 1 558V30C1 13.9837 13.9837 1 30 1ZM0 30C0 13.4314 13.4315 0 30 0H293C309.569 0 323 13.4315 323 30V558C323 574.569 309.569 588 293 588H30C13.4315 588 0 574.569 0 558V30ZM15.4323 33.0528C15.4323 22.2833 24.1628 13.5528 34.9323 13.5528H76.3315C83.172 13.5528 88.7174 19.0982 88.7174 25.9388C88.7174 33.3317 94.7105 39.3248 102.103 39.3248H220.697C228.09 39.3248 234.083 33.3317 234.083 25.9388C234.083 19.0982 239.628 13.5528 246.469 13.5528H288.569C299.338 13.5528 308.069 22.2833 308.069 33.0529V553.257C308.069 564.026 299.338 572.757 288.569 572.757H34.9323C24.1628 572.757 15.4323 564.026 15.4323 553.257V33.0528ZM34.9323 12.5528C23.6105 12.5528 14.4323 21.731 14.4323 33.0528V553.257C14.4323 564.578 23.6105 573.757 34.9323 573.757H288.569C299.891 573.757 309.069 564.578 309.069 553.257V33.0529C309.069 21.731 299.891 12.5528 288.569 12.5528H246.469C239.076 12.5528 233.083 18.5459 233.083 25.9388C233.083 32.7794 227.537 38.3248 220.697 38.3248H102.103C95.2628 38.3248 89.7174 32.7794 89.7174 25.9388C89.7174 18.5459 83.7243 12.5528 76.3315 12.5528H34.9323Z" fill="#828892"/>
</svg>
