<svg width="291" height="525" viewBox="0 0 291 525" fill="none" xmlns="http://www.w3.org/2000/svg">
<path fill-rule="evenodd" clip-rule="evenodd" d="M30 1H261C277.016 1 290 13.9837 290 30V495C290 511.016 277.016 524 261 524H30C13.9837 524 1 511.016 1 495V30C1 13.9837 13.9837 1 30 1ZM0 30C0 13.4315 13.4315 0 30 0H261C277.569 0 291 13.4315 291 30V495C291 511.569 277.569 525 261 525H30C13.4315 525 0 511.569 0 495V30ZM14.7218 32.2093C14.7218 21.4398 23.4523 12.7093 34.2218 12.7093H68.8529C74.9361 12.7093 79.8674 17.6407 79.8674 23.7238C79.8674 30.3592 85.2465 35.7383 91.8819 35.7383H197.4C204.035 35.7383 209.415 30.3592 209.415 23.7238C209.415 17.6407 214.346 12.7093 220.429 12.7093H255.684C266.454 12.7093 275.184 21.4398 275.184 32.2093V492.791C275.184 503.56 266.454 512.291 255.684 512.291H34.2218C23.4522 512.291 14.7218 503.56 14.7218 492.791V32.2093ZM34.2218 11.7093C22.9 11.7093 13.7218 20.8875 13.7218 32.2093V492.791C13.7218 504.113 22.9 513.291 34.2218 513.291H255.684C267.006 513.291 276.184 504.113 276.184 492.791V32.2093C276.184 20.8875 267.006 11.7093 255.684 11.7093H220.429C213.794 11.7093 208.415 17.0884 208.415 23.7238C208.415 29.807 203.483 34.7383 197.4 34.7383H91.8819C85.7988 34.7383 80.8674 29.807 80.8674 23.7238C80.8674 17.0884 75.4883 11.7093 68.8529 11.7093H34.2218Z" fill="#828892"/>
</svg>
